# xmcd
#
# Track frame offsets: 
#        150
#        15214
#        29240
#        39814
#        49555
#        66453
#        79048
#        92692
#        106610
#        128465
#        148313
#        158048
#        171669
#        188308
#        204564
#        217534
#        230703
#        241751
#        256853
#        277141
#
# Disc length: 3837 seconds
#
# Revision: 1
# Processed by: cddbd v1.5.2PL0 Copyright (c) Steve Scherf et al.
# Submitted via: ExactAudioCopy v0.95b4
#
DISCID=050efb14
DTITLE=Chet Baker - Prince of Cool- [CD1] Chet Sings
DYEAR=2003
DGENRE=Jazz
TTITLE0=I Fall In Love Too Easily
TTITLE1=But Not For Me
TTITLE2=My Funny Valentine
TTITLE3=Embraceable You
TTITLE4=Let's Get Lost
TTITLE5=Time After Time
TTITLE6=I Get Along Without You Very Well
TTITLE7=That Old Feeling
TTITLE8=You Don't Know What Love Is
TTITLE9=My Ideal
TTITLE10=Come Rain Or Come Shine
TTITLE11=There Will Never Be Another You
TTITLE12=Grey December
TTITLE13=It's Always You
TTITLE14=The Thrill Is Gone
TTITLE15=There's A Lull in My Life
TTITLE16=Like Somebody In Love
TTITLE17=My Buddy
TTITLE18=I've Never Been In Love Before
TTITLE19=The Night We Called It A Day
EXTD=YEAR: 2003
EXTT0=
EXTT1=
EXTT2=
EXTT3=
EXTT4=
EXTT5=
EXTT6=
EXTT7=
EXTT8=
EXTT9=
EXTT10=
EXTT11=
EXTT12=
EXTT13=
EXTT14=
EXTT15=
EXTT16=
EXTT17=
EXTT18=
EXTT19=
PLAYORDER=
